<?xml version="1.0" encoding="utf-8"?>
<!-- Generator: Adobe Illustrator 16.0.0, SVG Export Plug-In . SVG Version: 6.00 Build 0)  -->
<!DOCTYPE svg PUBLIC "-//W3C//DTD SVG 1.1//EN" "http://www.w3.org/Graphics/SVG/1.1/DTD/svg11.dtd">
<svg version="1.1" id="Layer_1" xmlns="http://www.w3.org/2000/svg" xmlns:xlink="http://www.w3.org/1999/xlink" x="0px" y="0px"
	 width="439.293px" height="622.65px" viewBox="0 84.675 439.293 622.65" enable-background="new 0 84.675 439.293 622.65"
	 xml:space="preserve">
<g id="iPad_x5F_Air_x5F_FRONT_3_">
	
		<linearGradient id="SVGID_1_" gradientUnits="userSpaceOnUse" x1="-1.8633" y1="-675.4863" x2="2072.9375" y2="-675.4863" gradientTransform="matrix(0.2117 0 0 -0.2117 0.3943 252.9698)">
		<stop  offset="0" style="stop-color:#010101"/>
		<stop  offset="0.4944" style="stop-color:#929497"/>
		<stop  offset="1" style="stop-color:#010101"/>
	</linearGradient>
	<path fill="url(#SVGID_1_)" d="M414.67,84.675H23.692C10.819,84.675,0,95.494,0,108.833v574.312
		c0,13.339,11.751,24.158,26.191,24.158h386.933c14.207,0,26.169-10.417,26.169-25.344V108.833
		C439.314,95.494,428.475,84.675,414.67,84.675z"/>
	<g>
		<g>
			
				<linearGradient id="SVGID_2_" gradientUnits="userSpaceOnUse" x1="1939.9414" y1="-2121.2871" x2="2044.5391" y2="-2121.2871" gradientTransform="matrix(0.2117 0 0 -0.2117 0.3943 252.9698)">
				<stop  offset="0" style="stop-color:#FFFFFF;stop-opacity:0"/>
				<stop  offset="1" style="stop-color:#FFFFFF"/>
			</linearGradient>
			<path fill="url(#SVGID_2_)" d="M429.829,698.496c-4.383,4.107-10.29,6.352-16.663,6.352h-2.032v2.478h2.032
				c8.004,0,15.287-3.303,20.114-8.851l-1.885-1.588C430.888,697.438,430.38,697.967,429.829,698.496z"/>
		</g>
		
			<linearGradient id="SVGID_3_" gradientUnits="userSpaceOnUse" x1="16.939" y1="-2105.3354" x2="16.939" y2="-2013.7378" gradientTransform="matrix(0.2117 0 0 -0.2117 0.3943 252.9698)">
			<stop  offset="0" style="stop-color:#FFFFFF"/>
			<stop  offset="1" style="stop-color:#FFFFFF;stop-opacity:0"/>
		</linearGradient>
		<path fill="url(#SVGID_3_)" d="M2.499,683.104v-3.769H0v3.769c0,5.971,2.329,11.412,6.204,15.625l1.757-1.778
			C4.552,693.224,2.499,688.375,2.499,683.104z"/>
		
			<linearGradient id="SVGID_4_" gradientUnits="userSpaceOnUse" x1="21.0894" y1="657.4609" x2="21.0894" y2="765.5625" gradientTransform="matrix(0.2117 0 0 -0.2117 0.3943 252.9698)">
			<stop  offset="0" style="stop-color:#FFFFFF;stop-opacity:0"/>
			<stop  offset="1" style="stop-color:#FFFFFF"/>
		</linearGradient>
		<path fill="url(#SVGID_4_)" d="M2.52,108.833c0-5.801,2.266-11.264,6.373-15.393c0.275-0.275,0.529-0.529,0.826-0.783L7.94,90.879
			C3.091,95.325,0,101.719,0,108.833v4.934h2.52V108.833z"/>
		
			<linearGradient id="SVGID_5_" gradientUnits="userSpaceOnUse" x1="1963.8398" y1="758.4629" x2="2061.4375" y2="758.4629" gradientTransform="matrix(0.2117 0 0 -0.2117 0.3943 252.9698)">
			<stop  offset="0" style="stop-color:#FFFFFF;stop-opacity:0"/>
			<stop  offset="1" style="stop-color:#FFFFFF"/>
		</linearGradient>
		<path fill="url(#SVGID_5_)" d="M430.422,93.504c1.948,1.927,3.493,4.15,4.573,6.585l1.863-1.863
			c-3.769-7.601-11.454-12.979-20.664-13.551v2.499C421.614,87.555,426.611,89.756,430.422,93.504z"/>
	</g>
	<path fill="#010101" d="M414.67,87.66H23.692c-5.441,0-10.607,2.202-14.546,6.183c-3.98,4.023-6.161,9.358-6.161,14.99v574.312
		c0,11.688,10.417,21.173,23.206,21.173h386.933c6.246,0,12.068-2.223,16.366-6.268c4.383-4.128,6.817-9.845,6.817-16.091V108.833
		c0-5.674-2.223-10.988-6.245-14.969C425.997,89.862,420.534,87.66,414.67,87.66z"/>
	<g>
		<g>
			<path fill="#010101" d="M234.574,676.667c0,8.236-6.691,14.927-14.927,14.927c-8.236,0-14.927-6.69-14.927-14.927
				s6.691-14.927,14.927-14.927C227.904,661.74,234.574,668.431,234.574,676.667z"/>
			
				<linearGradient id="SVGID_6_" gradientUnits="userSpaceOnUse" x1="1035.541" y1="-2082.9951" x2="1035.541" y2="-2026.8667" gradientTransform="matrix(0.2117 0 0 -0.2117 0.3943 252.9698)">
				<stop  offset="0" style="stop-color:#FFFFFF;stop-opacity:0"/>
				<stop  offset="1" style="stop-color:#FFFFFF"/>
			</linearGradient>
			<path opacity="0.2" fill="url(#SVGID_6_)" enable-background="new    " d="M234.574,676.667c0,8.236-6.691,14.927-14.927,14.927
				c-8.236,0-14.927-6.69-14.927-14.927C214.862,681.833,225.639,680.478,234.574,676.667z"/>
			<g opacity="0.1">
				<path fill="#FFFFFF" d="M219.646,662.227c8.236,0,14.927,6.183,14.927,14.44c0-8.236-6.691-14.927-14.927-14.927
					c-8.236,0-14.927,6.69-14.927,14.927C204.72,668.431,211.411,662.227,219.646,662.227z"/>
			</g>
		</g>
		<g>
			<path opacity="0.5" fill="#010101" enable-background="new    " d="M222.59,683.019h-5.886c-1.461,0-2.646-1.186-2.646-2.646
				v-5.886c0-1.461,1.186-2.646,2.646-2.646h5.886c1.461,0,2.646,1.186,2.646,2.646v5.886
				C225.257,681.812,224.051,683.019,222.59,683.019z M216.704,672.072c-1.334,0-2.393,1.08-2.393,2.393v5.886
				c0,1.334,1.08,2.393,2.393,2.393h5.886c1.334,0,2.393-1.079,2.393-2.393v-5.886c0-1.334-1.08-2.393-2.393-2.393H216.704z
				 M222.59,682.023h-5.886c-0.91,0-1.651-0.741-1.651-1.651v-5.886c0-0.911,0.741-1.652,1.651-1.652h5.886
				c0.91,0,1.651,0.741,1.651,1.652v5.886C224.262,681.262,223.521,682.023,222.59,682.023z M216.704,673.067
				c-0.783,0-1.397,0.635-1.397,1.397v5.886c0,0.783,0.635,1.397,1.397,1.397h5.886c0.783,0,1.397-0.635,1.397-1.397v-5.886
				c0-0.783-0.635-1.397-1.397-1.397H216.704z"/>
			<path opacity="0.5" fill="#FFFFFF" enable-background="new    " d="M222.59,672.94c0.847,0,1.524,0.678,1.524,1.524v5.886
				c0,0.847-0.678,1.524-1.524,1.524h-5.886c-0.847,0-1.524-0.678-1.524-1.524v-5.886c0-0.847,0.678-1.524,1.524-1.524H222.59
				 M222.59,671.945h-5.886c-1.397,0-2.52,1.122-2.52,2.52v5.886c0,1.397,1.122,2.52,2.52,2.52h5.886c1.397,0,2.52-1.122,2.52-2.52
				v-5.886C225.13,673.067,223.987,671.945,222.59,671.945L222.59,671.945z"/>
		</g>
	</g>
	<g>
		
			<linearGradient id="SVGID_7_" gradientUnits="userSpaceOnUse" x1="1035.5352" y1="672.2725" x2="1035.5352" y2="641.3757" gradientTransform="matrix(0.2117 0 0 -0.2117 0.3943 252.9698)">
			<stop  offset="0" style="stop-color:#231F20"/>
			<stop  offset="1" style="stop-color:#929497"/>
		</linearGradient>
		<path opacity="0.2" fill="url(#SVGID_7_)" enable-background="new    " d="M219.646,110.209c1.927,0,3.473,1.567,3.473,3.472
			c0,1.927-1.567,3.473-3.473,3.473c-1.926,0-3.472-1.567-3.472-3.473C216.174,111.776,217.72,110.209,219.646,110.209z"/>
		<path opacity="0.1" fill="#F1F1F2" enable-background="new    " d="M219.646,116.985c-1.926,0-3.472-1.355-3.472-3.282
			c0,1.927,1.567,3.472,3.472,3.472c1.906,0,3.473-1.567,3.473-3.472C223.14,115.608,221.573,116.985,219.646,116.985z"/>
		<path opacity="0.1" fill="#010101" enable-background="new    " d="M219.646,110.4c-1.926,0-3.472,1.355-3.472,3.282
			c0-1.927,1.567-3.472,3.472-3.472c1.906,0,3.473,1.567,3.473,3.472C223.14,111.776,221.573,110.4,219.646,110.4z"/>
		
			<linearGradient id="SVGID_8_" gradientUnits="userSpaceOnUse" x1="1035.541" y1="650.3486" x2="1035.541" y2="664.8046" gradientTransform="matrix(0.2117 0 0 -0.2117 0.3943 252.9698)">
			<stop  offset="0" style="stop-color:#231F20"/>
			<stop  offset="1" style="stop-color:#929497"/>
		</linearGradient>
		<path opacity="0.2" fill="url(#SVGID_8_)" enable-background="new    " d="M219.646,112.073c0.932,0,1.694,0.762,1.694,1.694
			s-0.762,1.694-1.694,1.694c-0.931,0-1.693-0.762-1.693-1.694S218.715,112.073,219.646,112.073z"/>
		
			<radialGradient id="SVGID_9_" cx="1035.5664" cy="657.4463" r="6.1103" gradientTransform="matrix(0.2117 0 0 -0.2117 0.3943 252.9698)" gradientUnits="userSpaceOnUse">
			<stop  offset="0" style="stop-color:#1D76BB"/>
			<stop  offset="1" style="stop-color:#29ABE2"/>
		</radialGradient>
		<path fill="url(#SVGID_9_)" d="M219.646,112.475c0.72,0,1.292,0.572,1.292,1.292s-0.572,1.292-1.292,1.292
			c-0.72,0-1.292-0.572-1.292-1.292S218.948,112.475,219.646,112.475z"/>
		<path opacity="0.5" fill="#D1E2F0" enable-background="new    " d="M219.646,112.729c0.318,0,0.593,0.084,0.593,0.19
			s-0.254,0.191-0.593,0.191c-0.338,0-0.593-0.085-0.593-0.191C219.075,112.813,219.329,112.729,219.646,112.729z"/>
	</g>
	<path fill="#231F20" d="M410.688,141.27v509.46H28.604V141.27H410.688 M410.688,139.025H28.604c-1.228,0-2.244,0.995-2.244,2.245
		v509.46c0,1.228,0.995,2.244,2.244,2.244h382.084c1.229,0,2.245-0.995,2.245-2.244V141.27
		C412.934,140.042,411.938,139.025,410.688,139.025L410.688,139.025z"/>
</g>
</svg>
